<svg width="16" height="16" viewBox="0 0 16 16" fill="none" xmlns="http://www.w3.org/2000/svg">
<path d="M8 14.6666C10.7533 14.6666 13 12.4199 13 9.66658V6.33325C13 3.57992 10.7533 1.33325 8 1.33325C5.24667 1.33325 3 3.57992 3 6.33325V9.66658C3 12.4199 5.24667 14.6666 8 14.6666Z" stroke="#8D8D8D" stroke-width="1.5" stroke-linecap="round" stroke-linejoin="round"/>
<path d="M8 7.33333C7.44667 7.33333 7 6.88667 7 6.33333V5C7 4.44667 7.44667 4 8 4C8.54667 4 9 4.44667 9 5V6.33333C9 6.88667 8.54667 7.33333 8 7.33333Z" stroke="#8D8D8D" stroke-width="1.5" stroke-linecap="round" stroke-linejoin="round"/>
<path d="M8 3.99992V1.33325" stroke="#8D8D8D" stroke-width="1.5" stroke-linecap="round" stroke-linejoin="round"/>
</svg>
