<svg width="24" height="24" viewBox="0 0 24 24" fill="none" xmlns="http://www.w3.org/2000/svg">
<path d="M15.3895 5.20979L16.7995 8.02979C16.9895 8.41979 17.4995 8.78979 17.9295 8.86979L20.4795 9.28979C22.1095 9.55979 22.4895 10.7398 21.3195 11.9198L19.3295 13.9098C18.9995 14.2398 18.8095 14.8898 18.9195 15.3598L19.4895 17.8198C19.9395 19.7598 18.8995 20.5198 17.1895 19.4998L14.7995 18.0798C14.3695 17.8198 13.6495 17.8198 13.2195 18.0798L10.8295 19.4998C9.11945 20.5098 8.07945 19.7598 8.52945 17.8198L9.09945 15.3598C9.18945 14.8798 8.99945 14.2298 8.66945 13.8998L6.67945 11.9098C5.50945 10.7398 5.88945 9.55979 7.51945 9.27979L10.0695 8.85979C10.4995 8.78979 11.0095 8.40979 11.1995 8.01979L12.6095 5.19979C13.3795 3.67979 14.6195 3.67979 15.3895 5.20979Z" fill="#8DB654"/>
<path d="M8 5.75H2C1.59 5.75 1.25 5.41 1.25 5C1.25 4.59 1.59 4.25 2 4.25H8C8.41 4.25 8.75 4.59 8.75 5C8.75 5.41 8.41 5.75 8 5.75Z" fill="#8DB654"/>
<path d="M5 19.75H2C1.59 19.75 1.25 19.41 1.25 19C1.25 18.59 1.59 18.25 2 18.25H5C5.41 18.25 5.75 18.59 5.75 19C5.75 19.41 5.41 19.75 5 19.75Z" fill="#8DB654"/>
<path d="M3 12.75H2C1.59 12.75 1.25 12.41 1.25 12C1.25 11.59 1.59 11.25 2 11.25H3C3.41 11.25 3.75 11.59 3.75 12C3.75 12.41 3.41 12.75 3 12.75Z" fill="#8DB654"/>
</svg>
